<?xml version="1.0" standalone="no"?>
<!DOCTYPE svg PUBLIC "-//W3C//DTD SVG 20010904//EN"
 "http://www.w3.org/TR/2001/REC-SVG-20010904/DTD/svg10.dtd">
<svg version="1.0" xmlns="http://www.w3.org/2000/svg"
 width="512.000000pt" height="512.000000pt" viewBox="0 0 512.000000 512.000000"
 preserveAspectRatio="xMidYMid meet">

<g transform="translate(0.000000,512.000000) scale(0.100000,-0.100000)"
fill="#000000" stroke="none">
<path d="M2325 5109 c-474 -45 -925 -221 -1314 -512 -124 -92 -396 -364 -488
-488 -696 -932 -696 -2166 0 -3098 92 -124 364 -396 488 -488 932 -696 2166
-696 3098 0 124 92 396 364 488 488 696 932 696 2166 0 3098 -92 124 -364 396
-488 488 -520 388 -1158 571 -1784 512z m-149 -1485 l36 -75 102 8 c129 10
362 10 492 0 l101 -8 37 77 36 77 51 -7 c116 -16 359 -89 512 -154 65 -27 69
-31 124 -118 215 -341 343 -700 388 -1083 16 -131 20 -373 8 -480 l-6 -63 -76
-53 c-90 -64 -250 -153 -381 -214 -91 -41 -278 -111 -299 -111 -13 0 -88 107
-135 192 -35 62 -36 69 -19 74 48 18 221 102 227 112 3 6 -6 19 -21 30 l-28
19 -95 -38 c-235 -94 -394 -123 -670 -123 -276 0 -435 29 -670 123 l-95 38
-28 -19 c-15 -11 -24 -24 -21 -30 6 -9 179 -94 227 -111 16 -6 15 -13 -19 -74
-47 -85 -123 -193 -135 -193 -21 0 -209 70 -299 111 -131 61 -291 150 -381
214 l-76 53 -6 78 c-24 275 13 623 94 893 62 207 175 453 301 656 l56 90 119
47 c165 65 409 134 485 137 24 1 31 -7 64 -75z"/>
<path d="M1995 2739 c-57 -14 -115 -57 -152 -113 -40 -59 -53 -103 -53 -183 0
-166 118 -295 270 -294 69 0 113 17 164 61 102 90 132 244 73 373 -55 120
-182 185 -302 156z"/>
<path d="M3007 2739 c-82 -20 -150 -79 -189 -164 -31 -67 -32 -189 -1 -256
100 -222 377 -229 484 -13 20 41 24 64 24 144 0 104 -14 144 -74 212 -56 64
-162 97 -244 77z"/>
</g>
</svg>
