<?xml version="1.0" standalone="no"?>
<!DOCTYPE svg PUBLIC "-//W3C//DTD SVG 20010904//EN"
 "http://www.w3.org/TR/2001/REC-SVG-20010904/DTD/svg10.dtd">
<svg version="1.0" xmlns="http://www.w3.org/2000/svg"
 width="3000.000000pt" height="3000.000000pt" viewBox="0 0 3000.000000 3000.000000"
 preserveAspectRatio="xMidYMid meet">

<g transform="translate(0.000000,3000.000000) scale(0.100000,-0.100000)"
fill="#000000" stroke="none">
<path d="M14530 29354 c-41 -2 -169 -8 -285 -14 -3347 -172 -6528 -1514 -8995
-3795 -153 -141 -570 -556 -733 -730 -2217 -2357 -3581 -5441 -3831 -8665 -35
-441 -41 -609 -41 -1150 0 -648 19 -1005 80 -1570 335 -3059 1639 -5919 3730
-8180 141 -153 556 -570 730 -733 2357 -2217 5441 -3581 8665 -3831 441 -35
609 -41 1150 -41 541 0 709 6 1150 41 3224 250 6308 1614 8665 3831 174 163
589 580 730 733 2091 2261 3395 5121 3730 8180 61 565 80 922 80 1570 0 648
-19 1005 -80 1570 -335 3059 -1639 5919 -3730 8180 -141 153 -556 570 -730
733 -1757 1653 -3957 2856 -6291 3441 -910 228 -1729 352 -2744 416 -161 11
-1101 21 -1250 14z m7050 -8660 c117 -27 206 -78 295 -168 93 -93 140 -175
179 -308 48 -167 52 -407 11 -628 -51 -267 -2380 -11222 -2405 -11305 -62
-215 -146 -371 -261 -484 -119 -118 -250 -171 -426 -171 -152 0 -282 35 -468
126 -98 47 -313 203 -1900 1374 -984 726 -1792 1320 -1795 1320 -5 0 -1228
-1174 -1695 -1628 -99 -96 -209 -197 -245 -224 -128 -97 -279 -152 -435 -159
l-80 -4 3 40 c17 276 243 3524 248 3562 l5 52 3346 3022 c1840 1662 3358 3040
3374 3061 132 184 -126 270 -401 134 -36 -18 -1925 -1203 -4198 -2634 -2273
-1431 -4137 -2602 -4143 -2602 -14 0 -3518 1093 -3613 1127 -106 38 -253 116
-321 170 -219 177 -225 396 -17 602 155 155 330 248 812 434 7996 3085 13671
5268 13725 5281 39 8 79 17 90 20 53 10 255 5 315 -10z"/>
</g>
</svg>
